<mxfile host="app.diagrams.net" agent="Mozilla/5.0 (Windows NT 10.0; Win64; x64) AppleWebKit/537.36 (KHTML, like Gecko) Chrome/133.0.0.0 Safari/537.36" version="26.0.15">
  <diagram id="C5RBs43oDa-KdzZeNtuy" name="Page-1">
    <mxGraphModel dx="10" dy="468" grid="1" gridSize="1" guides="0" tooltips="0" connect="1" arrows="1" fold="1" page="0" pageScale="1" pageWidth="3300" pageHeight="4681" math="0" shadow="0">
      <root>
        <mxCell id="WIyWlLk6GJQsqaUBKTNV-0" />
        <mxCell id="WIyWlLk6GJQsqaUBKTNV-1" parent="WIyWlLk6GJQsqaUBKTNV-0" />
        <mxCell id="68Pf7xs52Wq1cW9cMEug-1" value="USER" style="rounded=0;whiteSpace=wrap;html=1;" parent="WIyWlLk6GJQsqaUBKTNV-1" vertex="1">
          <mxGeometry x="1324" y="306" width="120" height="50" as="geometry" />
        </mxCell>
        <mxCell id="68Pf7xs52Wq1cW9cMEug-2" value="password_validation" style="ellipse;whiteSpace=wrap;html=1;" parent="WIyWlLk6GJQsqaUBKTNV-1" vertex="1">
          <mxGeometry x="1113" y="249.12" width="126" height="51" as="geometry" />
        </mxCell>
        <mxCell id="68Pf7xs52Wq1cW9cMEug-7" value="username" style="ellipse;whiteSpace=wrap;html=1;fontStyle=0" parent="WIyWlLk6GJQsqaUBKTNV-1" vertex="1">
          <mxGeometry x="1262" y="220" width="70" height="40" as="geometry" />
        </mxCell>
        <mxCell id="68Pf7xs52Wq1cW9cMEug-8" value="" style="endArrow=none;html=1;rounded=0;" parent="WIyWlLk6GJQsqaUBKTNV-1" source="68Pf7xs52Wq1cW9cMEug-1" target="68Pf7xs52Wq1cW9cMEug-7" edge="1">
          <mxGeometry width="50" height="50" relative="1" as="geometry">
            <mxPoint x="1414" y="346" as="sourcePoint" />
            <mxPoint x="1464" y="296" as="targetPoint" />
          </mxGeometry>
        </mxCell>
        <mxCell id="68Pf7xs52Wq1cW9cMEug-9" value="" style="endArrow=none;html=1;rounded=0;" parent="WIyWlLk6GJQsqaUBKTNV-1" source="68Pf7xs52Wq1cW9cMEug-1" target="68Pf7xs52Wq1cW9cMEug-2" edge="1">
          <mxGeometry width="50" height="50" relative="1" as="geometry">
            <mxPoint x="1394" y="366" as="sourcePoint" />
            <mxPoint x="1444" y="316" as="targetPoint" />
          </mxGeometry>
        </mxCell>
        <mxCell id="68Pf7xs52Wq1cW9cMEug-10" value="has" style="rhombus;whiteSpace=wrap;html=1;" parent="WIyWlLk6GJQsqaUBKTNV-1" vertex="1">
          <mxGeometry x="1488" y="410" width="40" height="27.5" as="geometry" />
        </mxCell>
        <mxCell id="68Pf7xs52Wq1cW9cMEug-11" value="N" style="shape=link;html=1;rounded=0;align=left;verticalAlign=bottom;" parent="WIyWlLk6GJQsqaUBKTNV-1" source="68Pf7xs52Wq1cW9cMEug-1" target="68Pf7xs52Wq1cW9cMEug-10" edge="1">
          <mxGeometry x="0.413" y="10" width="100" relative="1" as="geometry">
            <mxPoint x="1454" y="366" as="sourcePoint" />
            <mxPoint x="1554" y="366" as="targetPoint" />
            <mxPoint as="offset" />
            <Array as="points">
              <mxPoint x="1384" y="424" />
            </Array>
          </mxGeometry>
        </mxCell>
        <mxCell id="68Pf7xs52Wq1cW9cMEug-12" value="CHANNEL" style="rounded=0;whiteSpace=wrap;html=1;" parent="WIyWlLk6GJQsqaUBKTNV-1" vertex="1">
          <mxGeometry x="1553" y="488" width="120" height="50" as="geometry" />
        </mxCell>
        <mxCell id="68Pf7xs52Wq1cW9cMEug-13" value="channel_id" style="ellipse;whiteSpace=wrap;html=1;fontStyle=4" parent="WIyWlLk6GJQsqaUBKTNV-1" vertex="1">
          <mxGeometry x="1686" y="542" width="87" height="45" as="geometry" />
        </mxCell>
        <mxCell id="68Pf7xs52Wq1cW9cMEug-14" value="" style="endArrow=none;html=1;rounded=0;" parent="WIyWlLk6GJQsqaUBKTNV-1" source="68Pf7xs52Wq1cW9cMEug-12" target="68Pf7xs52Wq1cW9cMEug-13" edge="1">
          <mxGeometry width="50" height="50" relative="1" as="geometry">
            <mxPoint x="1533" y="478" as="sourcePoint" />
            <mxPoint x="1583" y="428" as="targetPoint" />
          </mxGeometry>
        </mxCell>
        <mxCell id="68Pf7xs52Wq1cW9cMEug-15" value="N" style="endArrow=none;html=1;rounded=0;verticalAlign=top;align=right;horizontal=1;" parent="WIyWlLk6GJQsqaUBKTNV-1" source="68Pf7xs52Wq1cW9cMEug-12" target="68Pf7xs52Wq1cW9cMEug-10" edge="1">
          <mxGeometry x="-0.5556" y="10" width="50" height="50" relative="1" as="geometry">
            <mxPoint x="1533" y="478" as="sourcePoint" />
            <mxPoint x="1583" y="428" as="targetPoint" />
            <Array as="points">
              <mxPoint x="1613" y="424" />
            </Array>
            <mxPoint as="offset" />
          </mxGeometry>
        </mxCell>
        <mxCell id="68Pf7xs52Wq1cW9cMEug-19" value="user_visible_name" style="ellipse;whiteSpace=wrap;html=1;fontStyle=0" parent="WIyWlLk6GJQsqaUBKTNV-1" vertex="1">
          <mxGeometry x="1425" y="542" width="114" height="53" as="geometry" />
        </mxCell>
        <mxCell id="68Pf7xs52Wq1cW9cMEug-20" value="" style="endArrow=none;html=1;rounded=0;" parent="WIyWlLk6GJQsqaUBKTNV-1" source="68Pf7xs52Wq1cW9cMEug-12" target="68Pf7xs52Wq1cW9cMEug-19" edge="1">
          <mxGeometry width="50" height="50" relative="1" as="geometry">
            <mxPoint x="1647" y="498" as="sourcePoint" />
            <mxPoint x="1672" y="467" as="targetPoint" />
          </mxGeometry>
        </mxCell>
        <mxCell id="68Pf7xs52Wq1cW9cMEug-21" value="is_private" style="ellipse;whiteSpace=wrap;html=1;" parent="WIyWlLk6GJQsqaUBKTNV-1" vertex="1">
          <mxGeometry x="1571.13" y="568" width="83.75" height="38" as="geometry" />
        </mxCell>
        <mxCell id="68Pf7xs52Wq1cW9cMEug-22" value="" style="endArrow=none;html=1;rounded=0;" parent="WIyWlLk6GJQsqaUBKTNV-1" source="68Pf7xs52Wq1cW9cMEug-12" target="68Pf7xs52Wq1cW9cMEug-21" edge="1">
          <mxGeometry width="50" height="50" relative="1" as="geometry">
            <mxPoint x="1683" y="517" as="sourcePoint" />
            <mxPoint x="1707" y="512" as="targetPoint" />
          </mxGeometry>
        </mxCell>
        <mxCell id="68Pf7xs52Wq1cW9cMEug-24" value="" style="rhombus;whiteSpace=wrap;html=1;" parent="WIyWlLk6GJQsqaUBKTNV-1" vertex="1">
          <mxGeometry x="1243.5" y="385.94" width="45" height="34.12" as="geometry" />
        </mxCell>
        <mxCell id="68Pf7xs52Wq1cW9cMEug-25" value="" style="endArrow=none;html=1;rounded=0;exitX=0.5;exitY=0;exitDx=0;exitDy=0;" parent="WIyWlLk6GJQsqaUBKTNV-1" source="68Pf7xs52Wq1cW9cMEug-24" target="68Pf7xs52Wq1cW9cMEug-1" edge="1">
          <mxGeometry x="0.5" y="15" width="50" height="50" relative="1" as="geometry">
            <mxPoint x="1294" y="326" as="sourcePoint" />
            <mxPoint x="1404" y="386" as="targetPoint" />
            <mxPoint as="offset" />
            <Array as="points">
              <mxPoint x="1266" y="331" />
            </Array>
          </mxGeometry>
        </mxCell>
        <mxCell id="68Pf7xs52Wq1cW9cMEug-26" value="N" style="shape=link;html=1;rounded=0;entryX=0.5;entryY=1;entryDx=0;entryDy=0;" parent="WIyWlLk6GJQsqaUBKTNV-1" source="68Pf7xs52Wq1cW9cMEug-38" target="68Pf7xs52Wq1cW9cMEug-24" edge="1">
          <mxGeometry x="-0.4386" y="-10" width="100" relative="1" as="geometry">
            <mxPoint x="1263.1136983809351" y="488" as="sourcePoint" />
            <mxPoint x="1263" y="428" as="targetPoint" />
            <mxPoint as="offset" />
          </mxGeometry>
        </mxCell>
        <mxCell id="68Pf7xs52Wq1cW9cMEug-28" value="text" style="ellipse;whiteSpace=wrap;html=1;" parent="WIyWlLk6GJQsqaUBKTNV-1" vertex="1">
          <mxGeometry x="1113" y="448" width="70" height="40" as="geometry" />
        </mxCell>
        <mxCell id="68Pf7xs52Wq1cW9cMEug-29" value="" style="endArrow=none;html=1;rounded=0;" parent="WIyWlLk6GJQsqaUBKTNV-1" source="68Pf7xs52Wq1cW9cMEug-28" target="68Pf7xs52Wq1cW9cMEug-38" edge="1">
          <mxGeometry width="50" height="50" relative="1" as="geometry">
            <mxPoint x="1333" y="448" as="sourcePoint" />
            <mxPoint x="1203.0000000000002" y="489.52173913043475" as="targetPoint" />
          </mxGeometry>
        </mxCell>
        <mxCell id="68Pf7xs52Wq1cW9cMEug-30" value="timestamp" style="ellipse;whiteSpace=wrap;html=1;" parent="WIyWlLk6GJQsqaUBKTNV-1" vertex="1">
          <mxGeometry x="1097" y="518" width="86" height="44" as="geometry" />
        </mxCell>
        <mxCell id="68Pf7xs52Wq1cW9cMEug-31" value="" style="endArrow=none;html=1;rounded=0;" parent="WIyWlLk6GJQsqaUBKTNV-1" source="68Pf7xs52Wq1cW9cMEug-30" target="68Pf7xs52Wq1cW9cMEug-38" edge="1">
          <mxGeometry width="50" height="50" relative="1" as="geometry">
            <mxPoint x="1194" y="482" as="sourcePoint" />
            <mxPoint x="1203.0000000000002" y="526.0434782608696" as="targetPoint" />
          </mxGeometry>
        </mxCell>
        <mxCell id="68Pf7xs52Wq1cW9cMEug-34" value="has" style="rhombus;whiteSpace=wrap;html=1;" parent="WIyWlLk6GJQsqaUBKTNV-1" vertex="1">
          <mxGeometry x="1246" y="388" width="40" height="30" as="geometry" />
        </mxCell>
        <mxCell id="68Pf7xs52Wq1cW9cMEug-36" value="has" style="rhombus;whiteSpace=wrap;html=1;" parent="WIyWlLk6GJQsqaUBKTNV-1" vertex="1">
          <mxGeometry x="1416" y="495.94" width="45" height="34.12" as="geometry" />
        </mxCell>
        <mxCell id="68Pf7xs52Wq1cW9cMEug-37" value="has" style="rhombus;whiteSpace=wrap;html=1;" parent="WIyWlLk6GJQsqaUBKTNV-1" vertex="1">
          <mxGeometry x="1419" y="498.06" width="40" height="30" as="geometry" />
        </mxCell>
        <mxCell id="68Pf7xs52Wq1cW9cMEug-38" value="MESSAGE" style="shape=ext;double=1;rounded=0;whiteSpace=wrap;html=1;" parent="WIyWlLk6GJQsqaUBKTNV-1" vertex="1">
          <mxGeometry x="1207.5" y="487" width="117" height="55" as="geometry" />
        </mxCell>
        <mxCell id="68Pf7xs52Wq1cW9cMEug-52" value="N" style="shape=link;html=1;rounded=0;" parent="WIyWlLk6GJQsqaUBKTNV-1" source="68Pf7xs52Wq1cW9cMEug-38" target="68Pf7xs52Wq1cW9cMEug-37" edge="1">
          <mxGeometry x="-0.4386" y="-10" width="100" relative="1" as="geometry">
            <mxPoint x="1369" y="547.5" as="sourcePoint" />
            <mxPoint x="1369" y="478.5" as="targetPoint" />
            <mxPoint as="offset" />
          </mxGeometry>
        </mxCell>
        <mxCell id="68Pf7xs52Wq1cW9cMEug-53" value="1" style="endArrow=none;html=1;rounded=0;" parent="WIyWlLk6GJQsqaUBKTNV-1" source="68Pf7xs52Wq1cW9cMEug-37" target="68Pf7xs52Wq1cW9cMEug-12" edge="1">
          <mxGeometry x="0.5" y="15" width="50" height="50" relative="1" as="geometry">
            <mxPoint x="1490" y="486.62" as="sourcePoint" />
            <mxPoint x="1530" y="486.62" as="targetPoint" />
            <mxPoint as="offset" />
          </mxGeometry>
        </mxCell>
        <mxCell id="68Pf7xs52Wq1cW9cMEug-63" value="user_id" style="ellipse;whiteSpace=wrap;html=1;fontStyle=4" parent="WIyWlLk6GJQsqaUBKTNV-1" vertex="1">
          <mxGeometry x="1449" y="239" width="60" height="30" as="geometry" />
        </mxCell>
        <mxCell id="68Pf7xs52Wq1cW9cMEug-64" value="" style="endArrow=none;html=1;rounded=0;" parent="WIyWlLk6GJQsqaUBKTNV-1" source="68Pf7xs52Wq1cW9cMEug-1" target="68Pf7xs52Wq1cW9cMEug-63" edge="1">
          <mxGeometry width="50" height="50" relative="1" as="geometry">
            <mxPoint x="1431" y="323" as="sourcePoint" />
            <mxPoint x="1452" y="285" as="targetPoint" />
          </mxGeometry>
        </mxCell>
        <mxCell id="68Pf7xs52Wq1cW9cMEug-65" value="message_id" style="ellipse;whiteSpace=wrap;html=1;fontStyle=0" parent="WIyWlLk6GJQsqaUBKTNV-1" vertex="1">
          <mxGeometry x="1184" y="577" width="86" height="39" as="geometry" />
        </mxCell>
        <mxCell id="68Pf7xs52Wq1cW9cMEug-66" value="" style="endArrow=none;html=1;rounded=0;" parent="WIyWlLk6GJQsqaUBKTNV-1" source="68Pf7xs52Wq1cW9cMEug-65" target="68Pf7xs52Wq1cW9cMEug-38" edge="1">
          <mxGeometry width="50" height="50" relative="1" as="geometry">
            <mxPoint x="1316" y="545" as="sourcePoint" />
            <mxPoint x="1366" y="495" as="targetPoint" />
          </mxGeometry>
        </mxCell>
        <mxCell id="3C9H7O8x9mEIDsKvC7Me-8" value="N" style="shape=link;html=1;rounded=0;" parent="WIyWlLk6GJQsqaUBKTNV-1" source="3C9H7O8x9mEIDsKvC7Me-15" target="3C9H7O8x9mEIDsKvC7Me-13" edge="1">
          <mxGeometry x="-0.4386" y="-10" width="100" relative="1" as="geometry">
            <mxPoint x="1384" y="217" as="sourcePoint" />
            <mxPoint x="1384" y="175" as="targetPoint" />
            <mxPoint as="offset" />
          </mxGeometry>
        </mxCell>
        <mxCell id="3C9H7O8x9mEIDsKvC7Me-9" value="1" style="shape=link;html=1;rounded=0;" parent="WIyWlLk6GJQsqaUBKTNV-1" source="68Pf7xs52Wq1cW9cMEug-1" target="3C9H7O8x9mEIDsKvC7Me-15" edge="1">
          <mxGeometry x="-0.4386" y="-10" width="100" relative="1" as="geometry">
            <mxPoint x="1393" y="316.06" as="sourcePoint" />
            <mxPoint x="1384" y="244.5" as="targetPoint" />
            <mxPoint as="offset" />
          </mxGeometry>
        </mxCell>
        <mxCell id="3C9H7O8x9mEIDsKvC7Me-10" value="token_validation" style="ellipse;whiteSpace=wrap;html=1;" parent="WIyWlLk6GJQsqaUBKTNV-1" vertex="1">
          <mxGeometry x="1198" y="66" width="106" height="50" as="geometry" />
        </mxCell>
        <mxCell id="3C9H7O8x9mEIDsKvC7Me-11" value="" style="endArrow=none;dashed=1;html=1;rounded=0;" parent="WIyWlLk6GJQsqaUBKTNV-1" edge="1">
          <mxGeometry width="50" height="50" relative="1" as="geometry">
            <mxPoint x="1206" y="597" as="sourcePoint" />
            <mxPoint x="1222" y="597" as="targetPoint" />
          </mxGeometry>
        </mxCell>
        <mxCell id="3C9H7O8x9mEIDsKvC7Me-13" value="TOKEN" style="shape=ext;double=1;rounded=0;whiteSpace=wrap;html=1;" parent="WIyWlLk6GJQsqaUBKTNV-1" vertex="1">
          <mxGeometry x="1325.5" y="119" width="117" height="55" as="geometry" />
        </mxCell>
        <mxCell id="3C9H7O8x9mEIDsKvC7Me-14" value="has" style="rhombus;whiteSpace=wrap;html=1;" parent="WIyWlLk6GJQsqaUBKTNV-1" vertex="1">
          <mxGeometry x="1361.5" y="217" width="45" height="34.12" as="geometry" />
        </mxCell>
        <mxCell id="3C9H7O8x9mEIDsKvC7Me-15" value="has" style="rhombus;whiteSpace=wrap;html=1;" parent="WIyWlLk6GJQsqaUBKTNV-1" vertex="1">
          <mxGeometry x="1364.5" y="219.12" width="40" height="30" as="geometry" />
        </mxCell>
        <mxCell id="3C9H7O8x9mEIDsKvC7Me-16" value="" style="endArrow=none;dashed=1;html=1;rounded=0;" parent="WIyWlLk6GJQsqaUBKTNV-1" edge="1">
          <mxGeometry width="50" height="50" relative="1" as="geometry">
            <mxPoint x="1301.5" y="98" as="sourcePoint" />
            <mxPoint x="1200.5" y="98" as="targetPoint" />
          </mxGeometry>
        </mxCell>
        <mxCell id="3C9H7O8x9mEIDsKvC7Me-17" value="" style="endArrow=none;html=1;rounded=0;" parent="WIyWlLk6GJQsqaUBKTNV-1" source="3C9H7O8x9mEIDsKvC7Me-13" target="3C9H7O8x9mEIDsKvC7Me-10" edge="1">
          <mxGeometry width="50" height="50" relative="1" as="geometry">
            <mxPoint x="1407" y="236" as="sourcePoint" />
            <mxPoint x="1457" y="186" as="targetPoint" />
          </mxGeometry>
        </mxCell>
        <mxCell id="3C9H7O8x9mEIDsKvC7Me-18" value="created_at" style="ellipse;whiteSpace=wrap;html=1;fontStyle=0" parent="WIyWlLk6GJQsqaUBKTNV-1" vertex="1">
          <mxGeometry x="1351" y="47" width="70" height="40" as="geometry" />
        </mxCell>
        <mxCell id="3C9H7O8x9mEIDsKvC7Me-19" value="" style="endArrow=none;html=1;rounded=0;" parent="WIyWlLk6GJQsqaUBKTNV-1" source="3C9H7O8x9mEIDsKvC7Me-13" target="3C9H7O8x9mEIDsKvC7Me-18" edge="1">
          <mxGeometry width="50" height="50" relative="1" as="geometry">
            <mxPoint x="1438" y="192" as="sourcePoint" />
            <mxPoint x="1488" y="142" as="targetPoint" />
          </mxGeometry>
        </mxCell>
        <mxCell id="3C9H7O8x9mEIDsKvC7Me-20" value="last_used_at" style="ellipse;whiteSpace=wrap;html=1;fontStyle=0" parent="WIyWlLk6GJQsqaUBKTNV-1" vertex="1">
          <mxGeometry x="1458" y="71" width="84" height="44" as="geometry" />
        </mxCell>
        <mxCell id="3C9H7O8x9mEIDsKvC7Me-21" value="" style="endArrow=none;html=1;rounded=0;" parent="WIyWlLk6GJQsqaUBKTNV-1" source="3C9H7O8x9mEIDsKvC7Me-13" target="3C9H7O8x9mEIDsKvC7Me-20" edge="1">
          <mxGeometry width="50" height="50" relative="1" as="geometry">
            <mxPoint x="1483" y="122" as="sourcePoint" />
            <mxPoint x="1587" y="145" as="targetPoint" />
          </mxGeometry>
        </mxCell>
        <mxCell id="3C9H7O8x9mEIDsKvC7Me-26" value="is_admin" style="ellipse;whiteSpace=wrap;html=1;fontStyle=0" parent="WIyWlLk6GJQsqaUBKTNV-1" vertex="1">
          <mxGeometry x="1411" y="440" width="70" height="40" as="geometry" />
        </mxCell>
        <mxCell id="1" value="APP_INVITE" style="shape=ext;double=1;rounded=0;whiteSpace=wrap;html=1;" parent="WIyWlLk6GJQsqaUBKTNV-1" vertex="1">
          <mxGeometry x="1691.5" y="303.5" width="117" height="55" as="geometry" />
        </mxCell>
        <mxCell id="3" value="" style="rhombus;whiteSpace=wrap;html=1;" parent="WIyWlLk6GJQsqaUBKTNV-1" vertex="1">
          <mxGeometry x="1537" y="313" width="55" height="35" as="geometry" />
        </mxCell>
        <mxCell id="5" value="invite_id" style="ellipse;whiteSpace=wrap;html=1;fontStyle=0" parent="WIyWlLk6GJQsqaUBKTNV-1" vertex="1">
          <mxGeometry x="1767" y="185" width="84" height="44" as="geometry" />
        </mxCell>
        <mxCell id="7" value="" style="endArrow=none;html=1;rounded=0;" parent="WIyWlLk6GJQsqaUBKTNV-1" source="1" target="5" edge="1">
          <mxGeometry width="50" height="50" relative="1" as="geometry">
            <mxPoint x="1565" y="190" as="sourcePoint" />
            <mxPoint x="1590" y="178" as="targetPoint" />
          </mxGeometry>
        </mxCell>
        <mxCell id="9" value="1" style="endArrow=none;html=1;rounded=0;verticalAlign=top;align=right;horizontal=1;exitX=1;exitY=0.5;exitDx=0;exitDy=0;" parent="WIyWlLk6GJQsqaUBKTNV-1" source="68Pf7xs52Wq1cW9cMEug-12" target="22" edge="1">
          <mxGeometry x="-0.5679" y="-4" width="50" height="50" relative="1" as="geometry">
            <mxPoint x="1704" y="538" as="sourcePoint" />
            <mxPoint x="1750" y="454" as="targetPoint" />
            <Array as="points" />
            <mxPoint as="offset" />
          </mxGeometry>
        </mxCell>
        <mxCell id="14" value="N" style="shape=link;html=1;rounded=0;exitX=0;exitY=0.5;exitDx=0;exitDy=0;" parent="WIyWlLk6GJQsqaUBKTNV-1" source="30" target="22" edge="1">
          <mxGeometry x="-0.4386" y="-10" width="100" relative="1" as="geometry">
            <mxPoint x="1811" y="437" as="sourcePoint" />
            <mxPoint x="1750" y="419.0000000000001" as="targetPoint" />
            <mxPoint as="offset" />
          </mxGeometry>
        </mxCell>
        <mxCell id="15" value="is_read_write" style="ellipse;whiteSpace=wrap;html=1;fontStyle=0" parent="WIyWlLk6GJQsqaUBKTNV-1" vertex="1">
          <mxGeometry x="1805" y="551" width="94" height="42" as="geometry" />
        </mxCell>
        <mxCell id="17" value="" style="endArrow=none;html=1;rounded=0;" parent="WIyWlLk6GJQsqaUBKTNV-1" source="30" target="15" edge="1">
          <mxGeometry width="50" height="50" relative="1" as="geometry">
            <mxPoint x="1781" y="474" as="sourcePoint" />
            <mxPoint x="1612" y="387" as="targetPoint" />
          </mxGeometry>
        </mxCell>
        <mxCell id="19" value="N" style="shape=link;html=1;rounded=0;entryX=0;entryY=0.5;entryDx=0;entryDy=0;exitX=1;exitY=0.5;exitDx=0;exitDy=0;" parent="WIyWlLk6GJQsqaUBKTNV-1" source="3" target="1" edge="1">
          <mxGeometry x="0.7899" y="9" width="100" relative="1" as="geometry">
            <mxPoint x="1595" y="301" as="sourcePoint" />
            <mxPoint x="1595" y="234" as="targetPoint" />
            <mxPoint as="offset" />
          </mxGeometry>
        </mxCell>
        <mxCell id="20" value="1" style="endArrow=none;html=1;rounded=0;exitX=1;exitY=0.5;exitDx=0;exitDy=0;entryX=0;entryY=0.5;entryDx=0;entryDy=0;" parent="WIyWlLk6GJQsqaUBKTNV-1" source="68Pf7xs52Wq1cW9cMEug-1" target="3" edge="1">
          <mxGeometry x="-0.779" y="12" width="50" height="50" relative="1" as="geometry">
            <mxPoint x="1481" y="272" as="sourcePoint" />
            <mxPoint x="1575" y="272" as="targetPoint" />
            <mxPoint as="offset" />
          </mxGeometry>
        </mxCell>
        <mxCell id="21" value="sends" style="rhombus;whiteSpace=wrap;html=1;" parent="WIyWlLk6GJQsqaUBKTNV-1" vertex="1">
          <mxGeometry x="1540" y="314" width="49" height="33" as="geometry" />
        </mxCell>
        <mxCell id="22" value="has" style="rhombus;whiteSpace=wrap;html=1;" parent="WIyWlLk6GJQsqaUBKTNV-1" vertex="1">
          <mxGeometry x="1778" y="498.06" width="40" height="27.5" as="geometry" />
        </mxCell>
        <mxCell id="23" value="" style="endArrow=none;dashed=1;html=1;rounded=0;" parent="WIyWlLk6GJQsqaUBKTNV-1" edge="1">
          <mxGeometry width="50" height="50" relative="1" as="geometry">
            <mxPoint x="1833" y="215" as="sourcePoint" />
            <mxPoint x="1781" y="215" as="targetPoint" />
          </mxGeometry>
        </mxCell>
        <mxCell id="24" value="invited_user_id" style="ellipse;whiteSpace=wrap;html=1;fontStyle=0" parent="WIyWlLk6GJQsqaUBKTNV-1" vertex="1">
          <mxGeometry x="1807" y="231" width="94" height="42" as="geometry" />
        </mxCell>
        <mxCell id="25" value="" style="endArrow=none;html=1;rounded=0;" parent="WIyWlLk6GJQsqaUBKTNV-1" source="1" target="24" edge="1">
          <mxGeometry width="50" height="50" relative="1" as="geometry">
            <mxPoint x="1634" y="259" as="sourcePoint" />
            <mxPoint x="1666" y="236" as="targetPoint" />
          </mxGeometry>
        </mxCell>
        <mxCell id="26" value="last_used_at" style="ellipse;whiteSpace=wrap;html=1;fontStyle=0" parent="WIyWlLk6GJQsqaUBKTNV-1" vertex="1">
          <mxGeometry x="1834" y="331" width="94" height="42" as="geometry" />
        </mxCell>
        <mxCell id="27" value="" style="endArrow=none;html=1;rounded=0;" parent="WIyWlLk6GJQsqaUBKTNV-1" source="1" target="26" edge="1">
          <mxGeometry width="50" height="50" relative="1" as="geometry">
            <mxPoint x="1792" y="305" as="sourcePoint" />
            <mxPoint x="1824" y="282" as="targetPoint" />
          </mxGeometry>
        </mxCell>
        <mxCell id="28" value="created_at" style="ellipse;whiteSpace=wrap;html=1;fontStyle=0" parent="WIyWlLk6GJQsqaUBKTNV-1" vertex="1">
          <mxGeometry x="1847" y="278" width="94" height="42" as="geometry" />
        </mxCell>
        <mxCell id="29" value="" style="endArrow=none;html=1;rounded=0;" parent="WIyWlLk6GJQsqaUBKTNV-1" source="1" target="28" edge="1">
          <mxGeometry width="50" height="50" relative="1" as="geometry">
            <mxPoint x="1608" y="267" as="sourcePoint" />
            <mxPoint x="1653" y="180" as="targetPoint" />
          </mxGeometry>
        </mxCell>
        <mxCell id="4-n9e9J6zfNFZhk6wjtM-29" value="times_used" style="ellipse;whiteSpace=wrap;html=1;fontStyle=0" parent="WIyWlLk6GJQsqaUBKTNV-1" vertex="1">
          <mxGeometry x="1585" y="258.12" width="94" height="42" as="geometry" />
        </mxCell>
        <mxCell id="4-n9e9J6zfNFZhk6wjtM-30" value="" style="endArrow=none;html=1;rounded=0;" parent="WIyWlLk6GJQsqaUBKTNV-1" source="1" target="4-n9e9J6zfNFZhk6wjtM-29" edge="1">
          <mxGeometry width="50" height="50" relative="1" as="geometry">
            <mxPoint x="1664" y="308" as="sourcePoint" />
            <mxPoint x="1718" y="230" as="targetPoint" />
          </mxGeometry>
        </mxCell>
        <mxCell id="4-n9e9J6zfNFZhk6wjtM-33" value="" style="endArrow=none;html=1;rounded=0;" parent="WIyWlLk6GJQsqaUBKTNV-1" source="68Pf7xs52Wq1cW9cMEug-10" target="3C9H7O8x9mEIDsKvC7Me-26" edge="1">
          <mxGeometry width="50" height="50" relative="1" as="geometry">
            <mxPoint x="1505" y="418" as="sourcePoint" />
            <mxPoint x="1528" y="443" as="targetPoint" />
          </mxGeometry>
        </mxCell>
        <mxCell id="30" value="CHANNEL_INVITE" style="shape=ext;double=1;rounded=0;whiteSpace=wrap;html=1;" parent="WIyWlLk6GJQsqaUBKTNV-1" vertex="1">
          <mxGeometry x="1873" y="484" width="117" height="55" as="geometry" />
        </mxCell>
        <mxCell id="31" value="" style="endArrow=none;html=1;rounded=0;" parent="WIyWlLk6GJQsqaUBKTNV-1" source="68Pf7xs52Wq1cW9cMEug-10" target="32" edge="1">
          <mxGeometry width="50" height="50" relative="1" as="geometry">
            <mxPoint x="1563" y="458" as="sourcePoint" />
            <mxPoint x="1539" y="397" as="targetPoint" />
          </mxGeometry>
        </mxCell>
        <mxCell id="32" value="can_write" style="ellipse;whiteSpace=wrap;html=1;fontStyle=0" parent="WIyWlLk6GJQsqaUBKTNV-1" vertex="1">
          <mxGeometry x="1457" y="354" width="70" height="40" as="geometry" />
        </mxCell>
        <mxCell id="34" value="N" style="shape=link;html=1;rounded=0;" parent="WIyWlLk6GJQsqaUBKTNV-1" source="21" target="30" edge="1">
          <mxGeometry x="0.8922" y="14" width="100" relative="1" as="geometry">
            <mxPoint x="1623" y="374" as="sourcePoint" />
            <mxPoint x="1723" y="374" as="targetPoint" />
            <Array as="points">
              <mxPoint x="1565" y="386" />
              <mxPoint x="1932" y="388" />
            </Array>
            <mxPoint as="offset" />
          </mxGeometry>
        </mxCell>
        <mxCell id="35" value="invite_code" style="ellipse;whiteSpace=wrap;html=1;fontStyle=0" parent="WIyWlLk6GJQsqaUBKTNV-1" vertex="1">
          <mxGeometry x="1678" y="221" width="94" height="42" as="geometry" />
        </mxCell>
        <mxCell id="36" value="" style="endArrow=none;html=1;rounded=0;" parent="WIyWlLk6GJQsqaUBKTNV-1" source="1" target="35" edge="1">
          <mxGeometry width="50" height="50" relative="1" as="geometry">
            <mxPoint x="1648" y="399" as="sourcePoint" />
            <mxPoint x="1698" y="349" as="targetPoint" />
          </mxGeometry>
        </mxCell>
        <mxCell id="37" value="invite_id" style="ellipse;whiteSpace=wrap;html=1;fontStyle=0" parent="WIyWlLk6GJQsqaUBKTNV-1" vertex="1">
          <mxGeometry x="2019" y="462" width="84" height="44" as="geometry" />
        </mxCell>
        <mxCell id="38" value="" style="endArrow=none;html=1;rounded=0;" parent="WIyWlLk6GJQsqaUBKTNV-1" source="30" target="37" edge="1">
          <mxGeometry width="50" height="50" relative="1" as="geometry">
            <mxPoint x="1980.9993774008653" y="493" as="sourcePoint" />
            <mxPoint x="1824.29" y="427" as="targetPoint" />
          </mxGeometry>
        </mxCell>
        <mxCell id="39" value="" style="endArrow=none;dashed=1;html=1;rounded=0;" parent="WIyWlLk6GJQsqaUBKTNV-1" edge="1">
          <mxGeometry width="50" height="50" relative="1" as="geometry">
            <mxPoint x="2085" y="492" as="sourcePoint" />
            <mxPoint x="2033" y="492" as="targetPoint" />
          </mxGeometry>
        </mxCell>
        <mxCell id="40" value="invited_user_id" style="ellipse;whiteSpace=wrap;html=1;fontStyle=0" parent="WIyWlLk6GJQsqaUBKTNV-1" vertex="1">
          <mxGeometry x="2014" y="521" width="94" height="42" as="geometry" />
        </mxCell>
        <mxCell id="41" value="" style="endArrow=none;html=1;rounded=0;" parent="WIyWlLk6GJQsqaUBKTNV-1" source="30" target="40" edge="1">
          <mxGeometry width="50" height="50" relative="1" as="geometry">
            <mxPoint x="1990" y="579" as="sourcePoint" />
            <mxPoint x="1870" y="511" as="targetPoint" />
          </mxGeometry>
        </mxCell>
        <mxCell id="42" value="last_used_at" style="ellipse;whiteSpace=wrap;html=1;fontStyle=0" parent="WIyWlLk6GJQsqaUBKTNV-1" vertex="1">
          <mxGeometry x="1858" y="598" width="94" height="42" as="geometry" />
        </mxCell>
        <mxCell id="43" value="" style="endArrow=none;html=1;rounded=0;" parent="WIyWlLk6GJQsqaUBKTNV-1" source="30" target="42" edge="1">
          <mxGeometry width="50" height="50" relative="1" as="geometry">
            <mxPoint x="1933" y="593" as="sourcePoint" />
            <mxPoint x="1948" y="535" as="targetPoint" />
          </mxGeometry>
        </mxCell>
        <mxCell id="44" value="created_at" style="ellipse;whiteSpace=wrap;html=1;fontStyle=0" parent="WIyWlLk6GJQsqaUBKTNV-1" vertex="1">
          <mxGeometry x="1929" y="557" width="94" height="42" as="geometry" />
        </mxCell>
        <mxCell id="45" value="" style="endArrow=none;html=1;rounded=0;" parent="WIyWlLk6GJQsqaUBKTNV-1" source="30" target="44" edge="1">
          <mxGeometry width="50" height="50" relative="1" as="geometry">
            <mxPoint x="1897" y="595" as="sourcePoint" />
            <mxPoint x="1741" y="457" as="targetPoint" />
          </mxGeometry>
        </mxCell>
        <mxCell id="46" value="times_used" style="ellipse;whiteSpace=wrap;html=1;fontStyle=0" parent="WIyWlLk6GJQsqaUBKTNV-1" vertex="1">
          <mxGeometry x="1962" y="415" width="94" height="42" as="geometry" />
        </mxCell>
        <mxCell id="47" value="" style="endArrow=none;html=1;rounded=0;" parent="WIyWlLk6GJQsqaUBKTNV-1" source="30" target="46" edge="1">
          <mxGeometry width="50" height="50" relative="1" as="geometry">
            <mxPoint x="2065" y="457.88" as="sourcePoint" />
            <mxPoint x="2091" y="382.88" as="targetPoint" />
          </mxGeometry>
        </mxCell>
        <mxCell id="48" value="" style="endArrow=none;dashed=1;html=1;rounded=0;" parent="WIyWlLk6GJQsqaUBKTNV-1" edge="1">
          <mxGeometry width="50" height="50" relative="1" as="geometry">
            <mxPoint x="2086" y="550" as="sourcePoint" />
            <mxPoint x="2034" y="550" as="targetPoint" />
          </mxGeometry>
        </mxCell>
        <mxCell id="49" value="" style="endArrow=none;dashed=1;html=1;rounded=0;" parent="WIyWlLk6GJQsqaUBKTNV-1" edge="1">
          <mxGeometry width="50" height="50" relative="1" as="geometry">
            <mxPoint x="1261" y="603" as="sourcePoint" />
            <mxPoint x="1192" y="603" as="targetPoint" />
          </mxGeometry>
        </mxCell>
        <mxCell id="JPx4fMEPGs_-jOu0P3Zv-49" value="USER" style="rounded=0;whiteSpace=wrap;html=1;" vertex="1" parent="WIyWlLk6GJQsqaUBKTNV-1">
          <mxGeometry x="1316" y="892" width="120" height="50" as="geometry" />
        </mxCell>
        <mxCell id="JPx4fMEPGs_-jOu0P3Zv-50" value="user_id" style="ellipse;whiteSpace=wrap;html=1;fontStyle=4" vertex="1" parent="WIyWlLk6GJQsqaUBKTNV-1">
          <mxGeometry x="1360" y="817" width="60" height="30" as="geometry" />
        </mxCell>
        <mxCell id="JPx4fMEPGs_-jOu0P3Zv-51" value="" style="endArrow=none;html=1;rounded=0;" edge="1" parent="WIyWlLk6GJQsqaUBKTNV-1" target="JPx4fMEPGs_-jOu0P3Zv-50" source="JPx4fMEPGs_-jOu0P3Zv-49">
          <mxGeometry width="50" height="50" relative="1" as="geometry">
            <mxPoint x="1401" y="892" as="sourcePoint" />
            <mxPoint x="1438" y="871" as="targetPoint" />
          </mxGeometry>
        </mxCell>
        <mxCell id="JPx4fMEPGs_-jOu0P3Zv-52" value="password_validation" style="ellipse;whiteSpace=wrap;html=1;" vertex="1" parent="WIyWlLk6GJQsqaUBKTNV-1">
          <mxGeometry x="1146" y="878" width="126" height="51" as="geometry" />
        </mxCell>
        <mxCell id="JPx4fMEPGs_-jOu0P3Zv-53" value="username" style="ellipse;whiteSpace=wrap;html=1;fontStyle=0" vertex="1" parent="WIyWlLk6GJQsqaUBKTNV-1">
          <mxGeometry x="1255" y="819" width="70" height="40" as="geometry" />
        </mxCell>
        <mxCell id="JPx4fMEPGs_-jOu0P3Zv-54" value="" style="endArrow=none;html=1;rounded=0;" edge="1" parent="WIyWlLk6GJQsqaUBKTNV-1" target="JPx4fMEPGs_-jOu0P3Zv-53" source="JPx4fMEPGs_-jOu0P3Zv-49">
          <mxGeometry width="50" height="50" relative="1" as="geometry">
            <mxPoint x="1332" y="889" as="sourcePoint" />
            <mxPoint x="1436" y="879" as="targetPoint" />
          </mxGeometry>
        </mxCell>
        <mxCell id="JPx4fMEPGs_-jOu0P3Zv-55" value="" style="endArrow=none;html=1;rounded=0;" edge="1" parent="WIyWlLk6GJQsqaUBKTNV-1" target="JPx4fMEPGs_-jOu0P3Zv-52" source="JPx4fMEPGs_-jOu0P3Zv-49">
          <mxGeometry width="50" height="50" relative="1" as="geometry">
            <mxPoint x="1296" y="898" as="sourcePoint" />
            <mxPoint x="1416" y="899" as="targetPoint" />
          </mxGeometry>
        </mxCell>
        <mxCell id="JPx4fMEPGs_-jOu0P3Zv-60" value="APP_INVITE" style="shape=ext;double=1;rounded=0;whiteSpace=wrap;html=1;" vertex="1" parent="WIyWlLk6GJQsqaUBKTNV-1">
          <mxGeometry x="1629.5" y="1001.5" width="117" height="55" as="geometry" />
        </mxCell>
        <mxCell id="JPx4fMEPGs_-jOu0P3Zv-61" value="invite_id" style="ellipse;whiteSpace=wrap;html=1;fontStyle=0" vertex="1" parent="WIyWlLk6GJQsqaUBKTNV-1">
          <mxGeometry x="1705" y="883" width="84" height="44" as="geometry" />
        </mxCell>
        <mxCell id="JPx4fMEPGs_-jOu0P3Zv-62" value="" style="endArrow=none;html=1;rounded=0;" edge="1" parent="WIyWlLk6GJQsqaUBKTNV-1" source="JPx4fMEPGs_-jOu0P3Zv-60" target="JPx4fMEPGs_-jOu0P3Zv-61">
          <mxGeometry width="50" height="50" relative="1" as="geometry">
            <mxPoint x="1503" y="888" as="sourcePoint" />
            <mxPoint x="1528" y="876" as="targetPoint" />
          </mxGeometry>
        </mxCell>
        <mxCell id="JPx4fMEPGs_-jOu0P3Zv-64" value="" style="endArrow=none;dashed=1;html=1;rounded=0;" edge="1" parent="WIyWlLk6GJQsqaUBKTNV-1">
          <mxGeometry width="50" height="50" relative="1" as="geometry">
            <mxPoint x="1771" y="913" as="sourcePoint" />
            <mxPoint x="1719" y="913" as="targetPoint" />
          </mxGeometry>
        </mxCell>
        <mxCell id="JPx4fMEPGs_-jOu0P3Zv-67" value="last_used_at" style="ellipse;whiteSpace=wrap;html=1;fontStyle=0" vertex="1" parent="WIyWlLk6GJQsqaUBKTNV-1">
          <mxGeometry x="1777" y="1004" width="94" height="42" as="geometry" />
        </mxCell>
        <mxCell id="JPx4fMEPGs_-jOu0P3Zv-68" value="" style="endArrow=none;html=1;rounded=0;" edge="1" parent="WIyWlLk6GJQsqaUBKTNV-1" source="JPx4fMEPGs_-jOu0P3Zv-60" target="JPx4fMEPGs_-jOu0P3Zv-67">
          <mxGeometry width="50" height="50" relative="1" as="geometry">
            <mxPoint x="1730" y="1003" as="sourcePoint" />
            <mxPoint x="1762" y="980" as="targetPoint" />
          </mxGeometry>
        </mxCell>
        <mxCell id="JPx4fMEPGs_-jOu0P3Zv-69" value="created_at" style="ellipse;whiteSpace=wrap;html=1;fontStyle=0" vertex="1" parent="WIyWlLk6GJQsqaUBKTNV-1">
          <mxGeometry x="1766" y="942" width="94" height="42" as="geometry" />
        </mxCell>
        <mxCell id="JPx4fMEPGs_-jOu0P3Zv-70" value="" style="endArrow=none;html=1;rounded=0;" edge="1" parent="WIyWlLk6GJQsqaUBKTNV-1" source="JPx4fMEPGs_-jOu0P3Zv-60" target="JPx4fMEPGs_-jOu0P3Zv-69">
          <mxGeometry width="50" height="50" relative="1" as="geometry">
            <mxPoint x="1546" y="965" as="sourcePoint" />
            <mxPoint x="1591" y="878" as="targetPoint" />
          </mxGeometry>
        </mxCell>
        <mxCell id="JPx4fMEPGs_-jOu0P3Zv-73" value="invite_code" style="ellipse;whiteSpace=wrap;html=1;fontStyle=0" vertex="1" parent="WIyWlLk6GJQsqaUBKTNV-1">
          <mxGeometry x="1570" y="928" width="94" height="42" as="geometry" />
        </mxCell>
        <mxCell id="JPx4fMEPGs_-jOu0P3Zv-74" value="" style="endArrow=none;html=1;rounded=0;" edge="1" parent="WIyWlLk6GJQsqaUBKTNV-1" source="JPx4fMEPGs_-jOu0P3Zv-60" target="JPx4fMEPGs_-jOu0P3Zv-73">
          <mxGeometry width="50" height="50" relative="1" as="geometry">
            <mxPoint x="1586" y="1097" as="sourcePoint" />
            <mxPoint x="1636" y="1047" as="targetPoint" />
          </mxGeometry>
        </mxCell>
        <mxCell id="JPx4fMEPGs_-jOu0P3Zv-75" value="D" style="ellipse;whiteSpace=wrap;html=1;aspect=fixed;" vertex="1" parent="WIyWlLk6GJQsqaUBKTNV-1">
          <mxGeometry x="1362" y="964" width="28" height="28" as="geometry" />
        </mxCell>
        <mxCell id="JPx4fMEPGs_-jOu0P3Zv-76" value="" style="endArrow=none;html=1;rounded=0;" edge="1" parent="WIyWlLk6GJQsqaUBKTNV-1" source="JPx4fMEPGs_-jOu0P3Zv-75" target="JPx4fMEPGs_-jOu0P3Zv-49">
          <mxGeometry width="50" height="50" relative="1" as="geometry">
            <mxPoint x="1375" y="1033" as="sourcePoint" />
            <mxPoint x="1425" y="983" as="targetPoint" />
          </mxGeometry>
        </mxCell>
        <mxCell id="JPx4fMEPGs_-jOu0P3Zv-77" value="USER" style="rounded=0;whiteSpace=wrap;html=1;" vertex="1" parent="WIyWlLk6GJQsqaUBKTNV-1">
          <mxGeometry x="1126" y="1028" width="120" height="50" as="geometry" />
        </mxCell>
        <mxCell id="JPx4fMEPGs_-jOu0P3Zv-78" value="USER" style="rounded=0;whiteSpace=wrap;html=1;" vertex="1" parent="WIyWlLk6GJQsqaUBKTNV-1">
          <mxGeometry x="1290" y="1028" width="120" height="50" as="geometry" />
        </mxCell>
        <mxCell id="JPx4fMEPGs_-jOu0P3Zv-79" value="USER" style="rounded=0;whiteSpace=wrap;html=1;direction=west;" vertex="1" parent="WIyWlLk6GJQsqaUBKTNV-1">
          <mxGeometry x="1448" y="1029" width="120" height="50" as="geometry" />
        </mxCell>
      </root>
    </mxGraphModel>
  </diagram>
</mxfile>
